<?xml version="1.0" encoding="UTF-8" standalone="no"?>
<svg
   xmlns:dc="http://purl.org/dc/elements/1.1/"
   xmlns:cc="http://creativecommons.org/ns#"
   xmlns:rdf="http://www.w3.org/1999/02/22-rdf-syntax-ns#"
   xmlns:svg="http://www.w3.org/2000/svg"
   xmlns="http://www.w3.org/2000/svg"
   xmlns:sodipodi="http://sodipodi.sourceforge.net/DTD/sodipodi-0.dtd"
   xmlns:inkscape="http://www.inkscape.org/namespaces/inkscape"
   id="Capa_1"
   enable-background="new 0 0 510.974 510.974"
   height="650"
   viewBox="0 0 648.69746 648.69746"
   width="650"
   version="1.1"
   sodipodi:docname="favicon.svg"
   inkscape:version="0.92.5 (2060ec1f9f, 2020-04-08)"
   inkscape:export-filename="/home/matthew/Projects/bju-covid-tracker/static/assets/favicon.png"
   inkscape:export-xdpi="96"
   inkscape:export-ydpi="96">
  <metadata
     id="metadata35">
    <rdf:RDF>
      <cc:Work
         rdf:about="">
        <dc:format>image/svg+xml</dc:format>
        <dc:type
           rdf:resource="http://purl.org/dc/dcmitype/StillImage" />
        <dc:title></dc:title>
      </cc:Work>
    </rdf:RDF>
  </metadata>
  <defs
     id="defs33" />
  <sodipodi:namedview
     pagecolor="#ffffff"
     bordercolor="#666666"
     borderopacity="1"
     objecttolerance="10"
     gridtolerance="10"
     guidetolerance="10"
     inkscape:pageopacity="0"
     inkscape:pageshadow="2"
     inkscape:window-width="1366"
     inkscape:window-height="699"
     id="namedview31"
     showgrid="false"
     inkscape:zoom="0.4609375"
     inkscape:cx="256"
     inkscape:cy="256"
     inkscape:window-x="0"
     inkscape:window-y="0"
     inkscape:window-maximized="1"
     inkscape:current-layer="Capa_1" />
  <circle
     style="opacity:1;fill:#ffffff;fill-opacity:0.85490196;stroke:none;stroke-width:10.044734;stroke-miterlimit:4;stroke-dasharray:none;stroke-opacity:0.85490196"
     id="path4564"
     cx="324.34872"
     cy="-324.34872"
     transform="scale(1,-1)"
     r="279.4389" />
  <g
     id="g28"
     transform="translate(68.861494,68.862477)">
    <path
       d="m 492.361,251.124 c -6.043,-1.184 -12.182,0.054 -17.292,3.487 -4.232,2.844 -7.338,6.913 -8.953,11.659 l -26.259,-11.467 c 0.054,-1.797 0.081,-3.568 0.081,-5.293 0,-15.439 -1.933,-30.769 -5.747,-45.62 l 11.779,-7.99 c 7.466,6.539 18.317,8.494 27.817,4.367 12.783,-5.555 18.906,-20.348 13.938,-33.678 l -5.545,-14.881 c -5.027,-13.493 -19.488,-20.602 -32.919,-16.194 -6.797,2.232 -12.267,6.994 -15.401,13.408 -1.783,3.648 -2.682,7.561 -2.684,11.493 l -13.363,1.866 c -1.831,-3.356 -3.831,-6.757 -5.967,-10.145 -2.209,-3.504 -6.842,-4.553 -10.344,-2.345 -3.505,2.209 -4.555,6.84 -2.346,10.344 2.521,3.999 4.831,8.006 6.866,11.912 2.043,3.916 6.351,6.137 10.711,5.529 l 24.098,-3.364 c 2.236,-0.312 4.213,-1.615 5.381,-3.547 1.168,-1.932 1.404,-4.288 0.642,-6.413 -1.035,-2.884 -0.863,-5.989 0.482,-8.743 1.342,-2.746 3.687,-4.785 6.604,-5.743 5.658,-1.856 12.017,1.365 14.184,7.181 l 5.545,14.881 c 2.146,5.759 -0.483,12.346 -5.861,14.684 -5.148,2.236 -11.21,0.319 -14.107,-4.458 -1.065,-1.757 -2.806,-3 -4.813,-3.438 -2.007,-0.439 -4.108,-0.032 -5.809,1.121 l -19.987,13.557 c -3.708,2.514 -5.396,7.111 -4.2,11.439 4.012,14.527 6.046,29.593 6.046,44.778 0,2.488 -0.063,5.088 -0.185,7.729 -0.199,4.302 2.314,8.348 6.252,10.067 l 37.472,16.364 c 2.084,0.911 4.469,0.826 6.482,-0.229 2.015,-1.055 3.441,-2.967 3.879,-5.199 l 1.188,-6.05 c 0.414,-2.109 1.625,-3.931 3.409,-5.13 1.783,-1.199 3.927,-1.632 6.037,-1.217 4.355,0.854 7.203,5.092 6.349,9.446 l -6.145,31.317 c -0.428,2.18 -1.695,4.039 -3.569,5.235 -1.872,1.195 -4.098,1.557 -6.267,1.027 -4.1,-1.007 -6.735,-5.398 -5.874,-9.79 l 0.164,-0.837 c 0.442,-2.259 -0.177,-4.596 -1.68,-6.339 -1.503,-1.745 -3.74,-2.709 -6.022,-2.596 l -40.534,1.849 c -4.291,0.195 -8.086,3.073 -9.442,7.165 -3.755,11.338 -8.739,22.293 -14.815,32.559 -2.263,3.822 -1.866,8.668 0.987,12.058 l 17.932,21.303 c 1.332,1.583 3.259,2.544 5.323,2.659 2.065,0.112 4.087,-0.63 5.584,-2.055 4.02,-3.823 10.13,-4.15 14.53,-0.783 2.382,1.822 3.91,4.462 4.306,7.434 0.396,2.972 -0.391,5.92 -2.212,8.301 l -5.196,6.791 c -3.733,4.877 -10.705,6.131 -15.542,2.798 -4.111,-2.833 -5.869,-8.113 -4.275,-12.84 1.242,-3.681 -0.533,-7.701 -4.091,-9.263 l -25.832,-11.346 c -4.108,-1.807 -8.903,-0.786 -11.935,2.541 -11.518,12.648 -24.819,23.424 -39.534,32.029 -3.717,2.17 -5.746,6.476 -5.052,10.713 l 6.613,40.324 c 0.368,2.244 1.734,4.2 3.715,5.318 1.981,1.118 4.36,1.276 6.473,0.432 l 5.722,-2.29 c 2.063,-0.825 4.313,-0.771 6.335,0.153 2.021,0.922 3.535,2.593 4.267,4.705 1.382,3.989 -0.875,8.588 -5.031,10.25 l -29.222,11.69 c -2.063,0.826 -4.312,0.771 -6.335,-0.152 -2.02,-0.922 -3.535,-2.593 -4.267,-4.704 -1.382,-3.989 0.874,-8.588 5.027,-10.25 l 0.791,-0.316 c 2.138,-0.855 3.764,-2.644 4.412,-4.853 0.647,-2.209 0.245,-4.593 -1.093,-6.467 L 310.462,416.03 c -2.494,-3.497 -6.973,-5.12 -11.137,-4.04 -13.745,3.563 -27.954,5.37 -42.234,5.37 -11.307,0 -22.642,-1.142 -33.688,-3.394 -4.217,-0.859 -8.599,0.994 -10.912,4.615 l -23.597,37.009 c -1.223,1.917 -1.509,4.286 -0.778,6.44 0.729,2.154 2.397,3.86 4.534,4.639 l 0.835,0.305 c 2.865,1.044 5.152,3.142 6.439,5.907 1.287,2.764 1.42,5.865 0.376,8.73 -0.301,0.823 -0.454,1.693 -0.454,2.569 0,2.837 -0.837,4.986 -2.357,6.049 -1.519,1.064 -3.823,1.116 -6.49,0.142 l -28.988,-10.57 c -5.805,-2.116 -8.895,-8.589 -6.89,-14.429 0.957,-2.784 3.017,-5.048 5.801,-6.376 2.941,-1.403 6.36,-1.577 9.377,-0.477 l 0.664,0.242 c 2.161,0.79 4.567,0.541 6.523,-0.673 1.957,-1.214 3.247,-3.259 3.5,-5.547 l 4.804,-43.373 c 0.473,-4.268 -1.779,-8.461 -5.603,-10.435 -17.535,-9.056 -33.224,-21.034 -46.627,-35.597 -2.95,-3.208 -7.634,-4.255 -11.656,-2.604 l -35.375,14.507 c -1.963,0.805 -3.493,2.403 -4.211,4.399 -0.719,1.996 -0.558,4.203 0.441,6.074 2.245,4.2 0.93,9.345 -3.058,11.967 -4.111,2.705 -9.867,1.44 -12.827,-2.82 l -9.061,-13.043 c -2.906,-4.183 -2.214,-9.798 1.575,-12.784 1.959,-1.544 4.39,-2.22 6.84,-1.905 2.469,0.318 4.653,1.584 6.152,3.566 1.356,1.794 3.446,2.885 5.694,2.972 2.24,0.086 4.415,-0.84 5.905,-2.525 l 24.916,-28.162 c 2.924,-3.305 3.448,-8.125 1.303,-11.999 -2.679,-4.832 -5.171,-9.92 -7.405,-15.124 -1.636,-3.805 -6.045,-5.566 -9.852,-3.931 -3.806,1.635 -5.566,6.045 -3.932,9.851 2.003,4.661 4.196,9.241 6.538,13.652 L 77.701,355.4 c -2.87,-1.76 -6.108,-2.908 -9.557,-3.352 -6.487,-0.833 -12.889,0.943 -18.04,5.001 -10.009,7.888 -12.033,22.438 -4.608,33.124 l 9.061,13.042 c 7.561,10.884 22.537,13.931 33.388,6.795 8.115,-5.337 12.026,-14.646 10.661,-23.714 l 26.08,-10.696 c 13.394,14.064 28.794,25.819 45.854,35 l -3.568,32.217 c -4.282,-0.122 -8.59,0.768 -12.508,2.637 -6.448,3.076 -11.253,8.417 -13.529,15.042 -4.642,13.517 2.508,28.498 15.938,33.395 l 28.988,10.57 c 2.909,1.061 5.832,1.585 8.647,1.585 4.24,0 8.237,-1.19 11.582,-3.53 5.248,-3.673 8.386,-9.827 8.726,-17.024 1.945,-6.272 1.499,-12.951 -1.293,-18.946 -1.789,-3.844 -4.414,-7.13 -7.662,-9.666 l 17.611,-27.622 c 25.29,4.705 51.661,4.013 76.583,-1.993 l 17.114,23.979 c -6.736,6.096 -9.534,15.689 -6.443,24.613 2.088,6.023 6.424,10.795 12.21,13.438 5.706,2.605 12.314,2.763 18.137,0.435 l 29.223,-11.69 c 11.676,-4.671 17.665,-17.448 13.633,-29.087 -2.087,-6.023 -6.423,-10.796 -12.209,-13.439 -4.747,-2.168 -10.123,-2.643 -15.149,-1.397 l -4.635,-28.259 c 14.038,-8.533 26.849,-18.903 38.15,-30.882 l 17.452,7.665 c -0.488,8.965 3.669,17.84 11.3,23.099 11.51,7.931 27.308,5.279 35.966,-6.034 L 460,392.915 c 4.257,-5.563 6.093,-12.451 5.169,-19.395 -0.924,-6.944 -4.496,-13.113 -10.06,-17.37 -8.117,-6.211 -18.713,-7.047 -27.438,-2.748 L 416.163,339.73 c 5.379,-9.47 9.915,-19.445 13.52,-29.73 l 29.417,-1.342 c 1.459,8.967 7.993,16.527 17.165,18.779 6.19,1.521 12.553,0.471 17.914,-2.951 5.286,-3.375 9.01,-8.838 10.217,-14.991 l 6.145,-31.317 c 2.446,-12.471 -5.709,-24.607 -18.18,-27.054 z"
       id="path2"
       inkscape:connector-curvature="0" />
    <path
       d="m 48.322,271.383 28.112,6.493 c 0.612,3.909 1.369,7.878 2.259,11.837 0.783,3.488 3.879,5.859 7.311,5.858 0.544,0 1.097,-0.06 1.65,-0.184 4.041,-0.908 6.582,-4.919 5.674,-8.961 -1.033,-4.604 -1.872,-9.215 -2.492,-13.705 -0.591,-4.273 -3.805,-7.795 -7.996,-8.762 l -39.815,-9.195 c -2.213,-0.511 -4.545,0.01 -6.33,1.417 -1.786,1.408 -2.837,3.55 -2.857,5.824 l -0.041,4.661 c -0.047,5.218 -4.33,9.464 -9.549,9.464 -2.485,0 -4.818,-0.972 -6.567,-2.737 -1.75,-1.766 -2.701,-4.106 -2.679,-6.591 l 0.26,-28.924 c 0.023,-2.652 1.15,-5.247 3.091,-7.119 1.824,-1.76 4.129,-2.704 6.564,-2.632 5.066,0.134 9.166,4.37 9.138,9.443 -0.013,2.297 1.028,4.474 2.825,5.906 1.797,1.433 4.153,1.963 6.387,1.437 l 39.535,-9.27 c 4.188,-0.982 7.388,-4.513 7.965,-8.787 2.917,-21.633 9.936,-42.198 20.861,-61.126 2.204,-3.822 1.77,-8.644 -1.085,-12 L 91.69,131.588 c -1.474,-1.73 -3.641,-2.702 -5.927,-2.635 -2.273,0.066 -4.394,1.159 -5.766,2.972 l -1.634,2.16 c -1.221,1.614 -3.001,2.629 -5.013,2.86 -2.005,0.23 -3.976,-0.36 -5.539,-1.662 -2.954,-2.461 -3.352,-7.115 -0.887,-10.374 l 12.558,-16.604 c 2.438,-3.223 7.044,-3.863 10.267,-1.424 3.018,2.282 3.791,6.569 1.761,9.76 -1.178,1.853 -1.485,4.128 -0.84,6.227 0.645,2.099 2.177,3.81 4.191,4.681 l 26.363,11.402 c 4.087,1.769 8.858,0.743 11.872,-2.557 12.002,-13.147 25.914,-24.251 41.354,-33.003 3.74,-2.122 5.825,-6.398 5.189,-10.644 l -6.073,-40.408 c -0.338,-2.249 -1.679,-4.223 -3.644,-5.367 -1.967,-1.145 -4.347,-1.335 -6.466,-0.519 l -5.753,2.213 c -2.074,0.796 -4.322,0.713 -6.331,-0.237 -2.008,-0.949 -3.5,-2.64 -4.203,-4.761 -1.329,-4.008 0.988,-8.575 5.167,-10.182 l 29.376,-11.299 c 2.074,-0.798 4.322,-0.713 6.331,0.237 2.008,0.949 3.501,2.64 4.204,4.761 1.328,4.008 -0.989,8.575 -5.168,10.183 l -0.794,0.306 c -2.148,0.827 -3.798,2.594 -4.475,4.794 -0.676,2.2 -0.306,4.589 1.007,6.48 l 23.126,33.338 c 2.446,3.526 6.897,5.209 11.076,4.186 13.034,-3.192 26.516,-4.811 40.088,-4.811 h 0.004 c 4.425,0 8.392,-2.789 9.871,-6.936 l 7.657,-21.426 c 0.687,-1.922 0.561,-4.042 -0.35,-5.868 -0.91,-1.827 -2.525,-3.205 -4.474,-3.814 -5.576,-1.744 -9.123,-7.22 -8.435,-13.02 0.367,-3.086 1.988,-5.895 4.564,-7.91 2.705,-2.116 6.166,-3.089 9.501,-2.668 l 10.516,1.324 c 6.816,0.858 11.781,6.887 11.068,13.439 -0.551,5.058 -4.092,9.16 -9.021,10.45 -3.61,0.945 -5.977,4.401 -5.552,8.109 l 2.661,23.218 c 0.507,4.431 3.781,8.053 8.15,9.014 16.752,3.68 32.805,9.917 47.708,18.535 3.733,2.16 8.483,1.788 11.822,-0.922 l 31.729,-25.755 c 1.766,-1.433 2.785,-3.59 2.773,-5.864 -0.013,-2.273 -1.056,-4.419 -2.836,-5.833 l -4.827,-3.833 c -1.74,-1.381 -2.81,-3.361 -3.012,-5.576 -0.201,-2.211 0.497,-4.355 1.968,-6.038 2.777,-3.181 7.888,-3.503 11.396,-0.72 l 24.65,19.571 c 1.74,1.381 2.81,3.361 3.012,5.575 0.201,2.211 -0.497,4.355 -1.968,6.039 -2.778,3.179 -7.892,3.501 -11.394,0.721 l -0.665,-0.528 c -1.804,-1.433 -4.166,-1.957 -6.403,-1.423 -2.24,0.534 -4.11,2.067 -5.073,4.158 l -16.995,36.892 c -1.797,3.902 -0.982,8.594 2.025,11.675 1.066,1.092 2.119,2.222 3.372,3.583 2.805,3.048 7.55,3.244 10.598,0.438 3.047,-2.806 3.243,-7.55 0.438,-10.598 -0.53,-0.577 -1.029,-1.117 -1.513,-1.634 l 12.343,-26.794 c 8.635,2.824 18.351,0.493 24.564,-6.62 4.194,-4.801 6.186,-10.934 5.608,-17.269 -0.569,-6.246 -3.712,-12.063 -8.623,-15.961 l -24.65,-19.57 c -9.849,-7.819 -23.913,-6.68 -32.019,2.599 -4.194,4.801 -6.186,10.934 -5.608,17.269 0.474,5.198 2.729,10.1 6.305,13.845 L 345.766,89.58 C 331.246,81.511 315.762,75.49 299.658,71.649 L 298.01,57.262 c 7.623,-4.216 12.97,-11.98 13.937,-20.855 C 313.54,21.769 302.725,8.336 287.84,6.461 L 277.324,5.137 c -7.266,-0.914 -14.783,1.176 -20.614,5.735 -5.748,4.495 -9.378,10.872 -10.219,17.957 -1.224,10.3 3.528,20.142 11.781,25.708 l -4.343,12.151 c -12.638,0.216 -25.199,1.725 -37.428,4.496 L 199.717,46.988 c 6.815,-6.004 9.742,-15.559 6.771,-24.523 C 204.481,16.414 200.209,11.584 194.459,8.864 188.789,6.183 182.183,5.936 176.33,8.187 l -29.375,11.298 c -11.739,4.514 -17.898,17.21 -14.021,28.903 2.006,6.051 6.277,10.881 12.028,13.601 4.718,2.231 10.083,2.778 15.129,1.599 l 4.256,28.318 c -14.809,8.731 -28.281,19.477 -40.119,31.999 l -16.933,-7.323 c 1.376,-8.017 -1.687,-16.516 -8.495,-21.666 -4.757,-3.598 -10.628,-5.131 -16.538,-4.308 -5.908,0.819 -11.143,3.891 -14.74,8.648 L 54.963,115.86 c -7.349,9.714 -5.922,23.308 3.248,30.947 4.745,3.953 10.728,5.744 16.852,5.04 3.861,-0.443 7.529,-1.902 10.631,-4.165 l 11.361,13.345 C 86.557,179.964 79.6,200.364 76.346,221.75 l -29.021,6.805 c -3.523,-8.792 -12.047,-15.16 -22.011,-15.423 -6.487,-0.163 -12.634,2.256 -17.378,6.833 -4.816,4.648 -7.614,11.127 -7.675,17.777 l -0.26,28.926 c -0.058,6.517 2.437,12.656 7.024,17.285 4.587,4.629 10.704,7.178 17.222,7.178 11.85,0.001 21.825,-8.514 24.075,-19.748 z"
       id="path4"
       inkscape:connector-curvature="0" />
    <path
       d="m 219.962,230.442 c 3.659,-1.939 5.054,-6.479 3.114,-10.139 -1.939,-3.658 -6.477,-5.056 -10.14,-3.114 -17.923,9.5 -38.352,6.989 -48.569,-5.975 -5.733,-7.272 -7.705,-16.909 -5.553,-27.134 2.256,-10.722 8.708,-20.733 18.167,-28.188 9.457,-7.456 20.699,-11.386 31.65,-11.082 10.445,0.295 19.354,4.463 25.088,11.736 8.608,10.921 8.499,27.222 -0.279,41.529 -2.166,3.531 -1.061,8.149 2.471,10.315 3.53,2.166 8.148,1.06 10.314,-2.47 12.102,-19.724 11.816,-42.749 -0.727,-58.66 -8.533,-10.826 -21.476,-17.021 -36.443,-17.443 -14.464,-0.42 -29.148,4.668 -41.36,14.295 -12.214,9.627 -20.58,22.725 -23.56,36.879 -3.084,14.652 -0.082,28.684 8.451,39.509 8.985,11.398 23.054,17.394 38.19,17.393 9.643,0 19.718,-2.432 29.186,-7.451 z"
       id="path6"
       inkscape:connector-curvature="0" />
    <path
       d="m 365.49,163.181 c 0,-15.549 -14.47,-28.199 -32.256,-28.199 -17.786,0 -32.257,12.65 -32.257,28.199 0,15.549 14.471,28.199 32.257,28.199 17.786,0 32.256,-12.65 32.256,-28.199 z m -49.512,0 c 0,-7.278 7.741,-13.199 17.257,-13.199 9.515,0 17.256,5.921 17.256,13.199 0,7.278 -7.741,13.199 -17.256,13.199 -9.516,0 -17.257,-5.921 -17.257,-13.199 z"
       id="path8"
       inkscape:connector-curvature="0" />
    <path
       d="m 278.455,292.082 c 0,-19.056 -15.503,-34.559 -34.559,-34.559 -19.057,0 -34.56,15.503 -34.56,34.559 0,19.056 15.503,34.559 34.56,34.559 19.056,0 34.559,-15.503 34.559,-34.559 z m -54.118,0 c 0,-10.785 8.774,-19.559 19.56,-19.559 10.784,0 19.559,8.774 19.559,19.559 0,10.785 -8.774,19.559 -19.559,19.559 -10.786,0 -19.56,-8.774 -19.56,-19.559 z"
       id="path10"
       inkscape:connector-curvature="0" />
    <path
       d="m 376.229,277.985 c 0,-14.819 -12.056,-26.875 -26.875,-26.875 -14.818,0 -26.874,12.056 -26.874,26.875 0,14.819 12.056,26.875 26.874,26.875 14.819,-0.001 26.875,-12.056 26.875,-26.875 z m -38.75,0 c 0,-6.548 5.327,-11.875 11.874,-11.875 6.548,0 11.875,5.327 11.875,11.875 0,6.548 -5.327,11.875 -11.875,11.875 -6.546,-0.001 -11.874,-5.327 -11.874,-11.875 z"
       id="path12"
       inkscape:connector-curvature="0" />
    <path
       d="m 277.802,398.869 c 14.521,0 26.336,-11.814 26.336,-26.336 0,-14.521 -11.814,-26.336 -26.336,-26.336 -14.522,0 -26.337,11.814 -26.337,26.336 0,14.522 11.814,26.336 26.337,26.336 z m 0,-37.672 c 6.251,0 11.336,5.085 11.336,11.336 0,6.251 -5.085,11.336 -11.336,11.336 -6.251,0 -11.337,-5.085 -11.337,-11.336 0,-6.251 5.086,-11.336 11.337,-11.336 z"
       id="path14"
       inkscape:connector-curvature="0" />
    <path
       d="m 159.94,354.598 c 14.955,0 27.122,-12.167 27.122,-27.122 0,-14.955 -12.167,-27.122 -27.122,-27.122 -14.955,0 -27.122,12.167 -27.122,27.122 0,14.955 12.167,27.122 27.122,27.122 z m 0,-39.244 c 6.685,0 12.122,5.438 12.122,12.122 0,6.684 -5.438,12.122 -12.122,12.122 -6.684,0 -12.122,-5.438 -12.122,-12.122 0,-6.684 5.438,-12.122 12.122,-12.122 z"
       id="path16"
       inkscape:connector-curvature="0" />
    <path
       d="m 312.663,233.613 c 0,-4.142 -3.357,-7.5 -7.5,-7.5 h -6.63 c -4.143,0 -7.5,3.358 -7.5,7.5 0,4.142 3.357,7.5 7.5,7.5 h 6.63 c 4.143,0 7.5,-3.358 7.5,-7.5 z"
       id="path18"
       inkscape:connector-curvature="0" />
    <path
       d="m 210.025,372.213 h 6.812 c 4.143,0 7.5,-3.358 7.5,-7.5 0,-4.142 -3.357,-7.5 -7.5,-7.5 h -6.812 c -4.143,0 -7.5,3.358 -7.5,7.5 0,4.142 3.358,7.5 7.5,7.5 z"
       id="path20"
       inkscape:connector-curvature="0" />
    <path
       d="m 146.88,262.991 c 4.143,0 7.5,-3.358 7.5,-7.5 0,-4.142 -3.357,-7.5 -7.5,-7.5 h -6.562 c -4.143,0 -7.5,3.358 -7.5,7.5 0,4.142 3.357,7.5 7.5,7.5 z"
       id="path22"
       inkscape:connector-curvature="0" />
    <path
       d="m 280.087,131.774 c 4.143,0 7.5,-3.358 7.5,-7.5 0,-4.142 -3.357,-7.5 -7.5,-7.5 h -9.132 c -4.143,0 -7.5,3.358 -7.5,7.5 0,4.142 3.357,7.5 7.5,7.5 z"
       id="path24"
       inkscape:connector-curvature="0" />
    <path
       d="m 329.979,332.797 c -4.143,0 -7.5,3.358 -7.5,7.5 0,4.142 3.357,7.5 7.5,7.5 h 10.084 c 4.143,0 7.5,-3.358 7.5,-7.5 0,-4.142 -3.357,-7.5 -7.5,-7.5 z"
       id="path26"
       inkscape:connector-curvature="0" />
  </g>
</svg>
